<?xml version='1.0' encoding='iso-8859-1'?>
<!DOCTYPE svg PUBLIC '-//W3C//DTD SVG 1.1//EN' 'http://www.w3.org/Graphics/SVG/1.1/DTD/svg11.dtd'>
<svg version="1.1" xmlns="http://www.w3.org/2000/svg" viewBox="0 0 438.479 438.479" xmlns:xlink="http://www.w3.org/1999/xlink" enable-background="new 0 0 438.479 438.479">
  <g>
    <path d="M378.982,0H59.497c-5.522,0-10,4.477-10,10v418.479c0,5.523,4.478,10,10,10h319.484c5.522,0,10-4.477,10-10V10   C388.982,4.477,384.504,0,378.982,0z M368.982,418.479H69.497V20h299.484V418.479z"/>
    <path d="m92.497,405.479h253.484c5.522,0 10-4.477 10-10v-352.479c0-5.523-4.478-10-10-10h-253.484c-5.522,0-10,4.477-10,10v352.479c0,5.523 4.478,10 10,10zm10-352.479h233.484v332.479h-233.484v-332.479z"/>
    <path d="m171.991,126.495h94.496c5.522,0 10-4.477 10-10s-4.478-10-10-10h-94.496c-5.522,0-10,4.477-10,10s4.478,10 10,10z"/>
    <path d="m266.488,239.988h-94.496c-5.522,0-10,4.477-10,10s4.478,10 10,10h94.496c5.522,0 10-4.477 10-10s-4.478-10-10-10z"/>
    <path d="m299.486,150.992h-160.493c-5.522,0-10,4.477-10,10s4.478,10 10,10h160.492c5.522,0 10-4.477 10-10s-4.477-10-9.999-10z"/>
    <path d="m299.486,195.49h-160.493c-5.522,0-10,4.477-10,10s4.478,10 10,10h160.492c5.522,0 10-4.477 10-10s-4.477-10-9.999-10z"/>
  </g>
</svg>
