<?xml version="1.0" standalone="no"?>
<!DOCTYPE svg PUBLIC "-//W3C//DTD SVG 20010904//EN"
 "http://www.w3.org/TR/2001/REC-SVG-20010904/DTD/svg10.dtd">
<svg version="1.0" xmlns="http://www.w3.org/2000/svg"
 width="500.000000pt" height="500.000000pt" viewBox="0 0 500.000000 500.000000"
 preserveAspectRatio="xMidYMid meet">
<metadata>
Created by potrace 1.11, written by Peter Selinger 2001-2013
</metadata>
<g transform="translate(0.000000,500.000000) scale(0.100000,-0.100000)"
fill="#000000" stroke="none">
<path d="M2309 4996 c-2 -2 -38 -6 -79 -9 -170 -13 -463 -85 -647 -158 -524
-208 -989 -610 -1254 -1084 -12 -22 -32 -58 -44 -80 -86 -153 -192 -444 -230
-630 -41 -202 -47 -267 -49 -495 -1 -267 4 -340 34 -495 12 -60 24 -120 26
-133 10 -55 79 -266 116 -357 23 -55 66 -147 96 -205 69 -132 76 -144 83 -150
3 -3 16 -23 29 -45 169 -280 485 -593 790 -782 240 -148 531 -265 795 -319
123 -25 192 -36 255 -42 156 -14 610 -5 639 12 4 3 27 7 51 10 62 7 239 50
341 82 339 107 662 295 927 539 335 309 572 681 701 1105 39 125 41 132 46
162 3 13 11 57 20 98 8 41 17 89 20 105 27 147 27 611 1 740 -2 11 -7 40 -11
65 -71 444 -295 901 -610 1248 -390 430 -924 717 -1482 797 -23 3 -57 8 -75
11 -39 7 -483 16 -489 10z m-559 -1781 c83 -168 152 -305 155 -305 3 0 4 90 3
201 0 112 3 204 9 210 5 5 128 9 283 10 301 0 348 -7 435 -64 59 -38 68 -47
108 -100 l37 -49 0 94 c0 51 4 99 9 106 11 19 221 18 233 -1 4 -6 8 -50 8 -97
1 -83 1 -84 18 -60 86 129 242 193 457 185 55 -1 125 -8 155 -14 125 -26 238
-108 280 -204 54 -123 50 -310 -10 -427 -40 -77 -121 -140 -230 -176 -71 -24
-328 -27 -405 -5 -109 31 -194 89 -249 171 -15 24 -16 21 -16 -66 0 -57 -4
-94 -12 -102 -16 -16 -210 -16 -226 0 -8 8 -12 48 -12 113 l0 100 -28 -43
c-55 -82 -138 -141 -235 -166 -45 -12 -128 -15 -384 -16 -292 0 -328 1 -344
16 -11 10 -19 21 -19 25 0 4 -24 58 -53 121 -30 62 -69 146 -87 186 -18 39
-36 72 -40 72 -4 0 -40 -73 -80 -162 -39 -90 -82 -183 -94 -208 l-22 -45 -174
0 -175 0 -74 137 c-45 83 -83 140 -95 145 -12 4 -52 8 -91 8 l-70 -1 -3 -134
c-1 -80 -7 -139 -14 -147 -8 -10 -42 -13 -138 -12 -121 1 -128 2 -137 22 -13
33 -9 775 4 788 8 8 108 11 315 10 166 -1 310 -2 318 -4 80 -16 167 -74 197
-130 19 -37 25 -139 11 -177 -19 -51 -54 -89 -100 -111 -44 -21 -62 -39 -38
-39 5 0 30 -21 56 -47 31 -32 49 -43 52 -35 2 8 82 171 178 363 96 193 174
354 174 360 0 5 2 9 5 9 3 0 73 -137 155 -305z m1516 -748 c108 -30 186 -82
233 -152 l26 -40 5 95 5 95 129 3 c77 2 133 -1 141 -8 9 -7 12 -75 10 -277 0
-148 1 -274 3 -280 3 -10 52 -13 198 -13 l194 0 0 190 0 189 -122 3 -123 3 -1
42 c0 24 -3 45 -5 48 -3 2 -3 26 1 52 l5 48 379 3 c275 2 382 -1 393 -9 17
-15 17 -164 -1 -178 -7 -6 -63 -12 -126 -13 l-114 -3 1 -295 c0 -181 -3 -300
-10 -307 -7 -10 -115 -13 -478 -13 l-469 0 -5 23 c-3 12 -6 57 -7 100 l-3 77
-35 -47 c-44 -60 -110 -104 -197 -134 -58 -20 -89 -24 -213 -25 -153 -1 -195
7 -296 52 -99 45 -180 151 -192 251 -2 24 -8 43 -12 43 -4 0 -65 -117 -136
-260 -113 -229 -144 -283 -144 -251 0 4 -85 182 -190 395 l-190 386 -163 0
-163 0 2 -27 c1 -16 3 -36 3 -45 1 -16 16 -18 161 -18 150 0 161 -1 168 -20
10 -27 6 -170 -6 -182 -8 -8 -156 -14 -187 -8 -5 1 -14 1 -20 0 -5 -1 -35 -2
-65 -1 l-55 1 2 -33 c1 -17 2 -39 2 -48 1 -14 24 -16 197 -15 108 1 200 -2
206 -5 11 -7 14 -182 3 -199 -10 -16 -950 -14 -962 3 -11 13 -59 101 -113 205
-36 70 -44 74 -148 76 l-67 1 -3 -135 c-1 -78 -7 -139 -14 -147 -12 -15 -244
-19 -267 -4 -13 8 -15 71 -16 393 -1 211 3 391 8 401 8 17 28 18 340 15 l332
-3 50 -27 c98 -52 138 -118 131 -217 -7 -91 -46 -148 -125 -180 -29 -12 -42
-31 -22 -31 20 0 80 -71 126 -148 l50 -82 3 334 c2 252 5 336 15 344 8 7 147
11 392 12 209 1 386 2 393 1 7 0 30 -38 51 -83 21 -46 64 -136 95 -202 31 -65
56 -122 56 -127 0 -5 4 -9 9 -9 5 0 28 44 51 98 24 53 58 129 75 167 18 39 40
87 48 107 8 20 24 40 34 46 10 5 71 8 137 7 96 -2 120 -5 127 -17 8 -14 14
-15 56 -1 27 8 66 18 88 22 58 12 272 4 331 -12z"/>
<path d="M707 3143 c-2 -4 -5 -41 -5 -80 0 -61 3 -73 17 -74 45 -3 180 1 206
7 45 9 65 32 65 74 0 63 -22 73 -160 77 -65 2 -120 0 -123 -4z"/>
<path d="M3435 3105 c-5 -2 -22 -6 -37 -9 -48 -11 -95 -61 -108 -117 -22 -91
3 -171 67 -211 52 -32 200 -34 252 -3 55 33 75 67 79 141 7 109 -35 172 -130
194 -42 9 -102 12 -123 5z"/>
<path d="M2205 3077 c-3 -6 -4 -81 -2 -166 l2 -155 96 1 c125 0 160 8 191 41
70 74 52 240 -30 274 -40 17 -252 21 -257 5z"/>
<path d="M703 2210 c-1 -92 -14 -84 131 -81 93 2 143 20 151 54 21 81 -23 107
-176 107 l-106 0 0 -80z"/>
<path d="M2978 2234 c-32 -10 -55 -25 -71 -47 -31 -41 -38 -62 -38 -130 -2
-116 66 -175 201 -175 40 0 85 4 99 9 33 12 74 47 90 78 18 32 20 140 5 177
-36 88 -160 125 -286 88z"/>
</g>
</svg>
