<?xml version="1.0" standalone="no"?>
<!DOCTYPE svg PUBLIC "-//W3C//DTD SVG 20010904//EN"
 "http://www.w3.org/TR/2001/REC-SVG-20010904/DTD/svg10.dtd">
<svg version="1.0" xmlns="http://www.w3.org/2000/svg"
 width="500.000000pt" height="500.000000pt" viewBox="0 0 500.000000 500.000000"
 preserveAspectRatio="xMidYMid meet">
<metadata>
Created by potrace 1.11, written by Peter Selinger 2001-2013
</metadata>
<g transform="translate(0.000000,500.000000) scale(0.100000,-0.100000)"
fill="#000000" stroke="none">
<path d="M2325 4994 c-235 -24 -366 -46 -515 -90 -318 -94 -617 -247 -865
-444 -103 -82 -323 -302 -405 -405 -237 -299 -414 -678 -489 -1050 -35 -176
-45 -285 -45 -505 0 -220 10 -329 45 -505 75 -372 252 -751 489 -1050 82 -103
302 -323 405 -405 353 -280 784 -461 1245 -522 123 -16 497 -16 620 0 461 61
892 242 1245 522 103 82 323 302 405 405 280 353 461 784 522 1245 16 123 16
497 0 620 -61 461 -242 892 -522 1245 -82 103 -302 323 -405 405 -350 278
-788 462 -1235 520 -89 11 -426 21 -495 14z m-592 -1739 c68 -137 132 -269
142 -292 11 -24 22 -43 27 -43 4 0 9 91 10 203 l3 202 283 3 c234 2 292 0 337
-14 30 -8 62 -22 70 -30 8 -9 15 -13 15 -9 0 3 20 -8 45 -26 25 -18 45 -35 45
-39 0 -3 14 -22 30 -40 17 -18 31 -38 32 -44 1 -6 4 36 7 94 l6 105 120 0 120
0 6 -95 c3 -52 6 -90 7 -84 3 20 93 114 108 114 8 0 14 5 14 11 0 5 4 8 9 5 5
-4 11 -2 13 3 1 5 10 11 18 13 8 2 17 6 20 10 13 17 143 41 235 43 203 4 339
-37 421 -127 42 -45 70 -88 59 -88 -4 0 0 -7 8 -15 39 -39 46 -259 12 -360
-45 -130 -162 -222 -310 -243 -64 -9 -318 -8 -340 2 -11 5 -29 11 -40 13 -11
2 -21 8 -23 13 -2 5 -9 7 -16 4 -21 -8 -124 69 -161 120 l-34 48 -3 -98 -3
-99 -109 -3 c-71 -2 -113 1 -122 9 -10 8 -14 38 -14 112 l0 100 -31 -46 c-52
-79 -142 -143 -229 -163 -40 -9 -684 -18 -717 -9 -18 4 -45 49 -47 80 -1 6 -4
12 -8 15 -5 5 -69 138 -128 268 -13 28 -26 52 -30 52 -3 0 -43 -84 -89 -187
-46 -104 -90 -198 -97 -210 -14 -22 -19 -23 -184 -23 l-169 0 -19 28 c-19 27
-29 50 -30 66 0 5 -4 12 -9 15 -5 3 -26 38 -47 76 -59 107 -56 105 -152 105
l-83 0 -3 -142 -3 -143 -135 -3 c-118 -2 -136 0 -147 15 -17 22 -19 754 -3
784 10 18 25 19 329 19 355 0 376 -3 450 -67 56 -47 81 -99 81 -165 -1 -92
-54 -174 -127 -199 -31 -10 -46 -29 -23 -29 6 0 31 -20 55 -45 l45 -44 31 62
c17 34 36 65 41 68 5 3 9 9 7 13 -4 13 286 595 293 588 3 -4 62 -119 131 -257z
m1484 -776 c35 -6 63 -15 63 -21 0 -5 5 -6 10 -3 16 10 110 -38 158 -80 24
-21 41 -39 39 -42 -3 -2 5 -15 17 -28 l21 -24 5 92 5 92 134 3 c101 2 136 -1
143 -10 4 -7 8 -138 8 -290 l0 -278 195 0 195 0 0 190 0 189 -122 3 -123 3 0
95 0 95 390 0 390 0 3 -83 c2 -53 -1 -89 -9 -98 -9 -11 -40 -14 -125 -14
l-114 0 0 -295 c0 -206 -3 -300 -11 -308 -9 -9 -125 -11 -483 -10 l-471 2 -5
98 c-5 98 -5 98 -22 68 -43 -78 -143 -142 -264 -171 -86 -20 -313 -14 -387 10
-77 25 -146 67 -188 114 -36 42 -79 133 -79 170 -1 49 -18 37 -55 -38 -21 -44
-43 -80 -47 -80 -4 0 -7 -3 -6 -7 4 -15 -14 -53 -24 -53 -6 0 -9 -3 -5 -6 6
-6 -130 -287 -141 -291 -8 -3 -189 368 -184 375 2 3 -1 8 -7 11 -5 4 -53 95
-106 204 l-96 197 -159 0 -160 0 0 -45 0 -45 163 -2 162 -3 0 -100 0 -100
-115 -2 c-63 -1 -136 -2 -162 -3 l-48 0 0 -45 0 -45 188 -1 c103 0 194 -3 204
-7 13 -6 16 -22 15 -105 l-2 -98 -476 -2 c-318 -1 -480 1 -486 8 -13 14 -123
213 -126 228 -6 34 -40 47 -123 47 l-83 0 -3 -140 -3 -141 -139 -1 c-106 0
-140 3 -147 13 -13 20 -11 756 1 780 10 18 24 19 324 19 254 0 322 -3 365 -16
60 -17 123 -70 152 -125 23 -46 25 -125 4 -177 -16 -37 -88 -112 -109 -112 -6
0 -17 -4 -25 -9 -12 -8 -12 -12 2 -25 8 -9 20 -16 25 -16 4 0 18 -10 29 -22
30 -32 112 -175 105 -182 -3 -3 0 -6 6 -6 9 0 12 92 14 343 l3 342 380 7 c209
5 391 6 403 3 19 -5 36 -32 82 -128 108 -229 133 -282 133 -294 0 -6 6 -9 14
-6 7 3 11 9 8 13 -3 4 2 20 9 36 16 31 46 98 121 266 35 77 53 108 69 112 11
3 69 6 129 6 91 0 110 -3 126 -19 13 -13 23 -16 35 -9 58 32 276 47 393 27z"/>
<path d="M710 3070 l0 -81 113 2 c129 1 153 12 166 69 15 66 -37 89 -191 90
l-88 0 0 -80z"/>
<path d="M3405 3095 c-109 -29 -155 -153 -100 -268 35 -75 147 -107 266 -76
49 12 86 43 105 87 18 40 19 118 3 159 -11 29 -69 100 -78 95 -3 -1 -28 2 -54
8 -60 13 -80 12 -142 -5z"/>
<path d="M2198 3084 c-5 -4 -8 -79 -8 -166 l0 -158 118 0 c134 0 174 13 205
68 24 40 25 133 4 184 -24 56 -62 71 -197 76 -63 2 -118 1 -122 -4z"/>
<path d="M708 2210 l-3 -80 95 0 c142 0 195 22 195 80 0 58 -53 80 -192 80
l-91 0 -4 -80z"/>
<path d="M2951 2220 c-65 -39 -76 -62 -76 -157 0 -93 16 -125 76 -155 54 -27
70 -31 129 -29 64 2 135 34 163 72 34 47 39 123 16 208 -9 31 -54 63 -109 77
-80 20 -147 15 -199 -16z"/>
</g>
</svg>
