<?xml version="1.0" encoding="UTF-8" standalone="no"?>
<svg width="170px" height="150px" viewBox="0 0 170 150" version="1.1" xmlns="http://www.w3.org/2000/svg" xmlns:xlink="http://www.w3.org/1999/xlink">
    <!-- Generator: Sketch 42 (36781) - http://www.bohemiancoding.com/sketch -->
    <title>show</title>
    <desc>Created with Sketch.</desc>
    <defs></defs>
    <g id="Page-1" stroke="none" stroke-width="1" fill="none" fill-rule="evenodd">
        <g id="show" fill-rule="nonzero" fill="#000000">
            <g id="Page-1">
                <g id="show">
                    <g id="_x33_7-People_watching_movie">
                        <path d="M167.809839,0.0633870968 L128.116452,0.0633870968 L41.0516129,0.0633870968 L1.35822581,0.0633870968 L0,0.0633870968 L0,56.6762903 L0,76.2691935 L0,132.882097 L14.5267742,132.882097 C14.8325806,127.58129 16.2193548,122.462419 18.5835484,117.957581 C19.8706452,115.505323 21.4170968,113.284839 23.1803226,111.341129 C20.9104839,107.562581 19.653871,103.120645 19.653871,98.5103226 C19.653871,92.5683871 21.7146774,87.1335484 25.1075806,82.9630645 C20.6612903,76.9674194 15.9469355,71.7154839 11.8180645,67.5140323 C14.5374194,66.8506452 17.7082258,65.7396774 21.1930645,63.8951613 C33.4819355,57.3895161 44.4348387,44.8606452 53.8282258,26.5979032 C63.3430645,27.8970968 73.7191935,28.6117742 84.5835484,28.6117742 C95.4479032,28.6117742 105.824516,27.8966129 115.339355,26.5979032 C124.732742,44.8606452 135.685645,57.3895161 147.974516,63.8951613 C151.459355,65.7401613 154.630161,66.8506452 157.349516,67.5140323 C153.220645,71.7154839 148.506774,76.9674194 144.059516,82.9630645 C147.452903,87.1335484 149.513226,92.568871 149.513226,98.5103226 C149.513226,103.120645 148.257097,107.563065 145.987258,111.341129 C147.75,113.284355 149.296935,115.505323 150.584032,117.957581 C152.948226,122.462419 154.335,127.58129 154.640806,132.882097 L169.167581,132.882097 L169.167581,76.2691935 L169.167581,56.6762903 L169.167581,0.0633870968 L167.809839,0.0633870968 Z M19.3320968,59.4024194 C18.1751613,60.0314516 17.0593548,60.5656452 15.9895161,61.0233871 C24.6295161,51.54 34.4453226,38.4217742 39.0633871,23.9646774 C42.1582258,24.66 45.393871,25.286129 48.7558065,25.8372581 C38.0801613,45.9570968 27.0996774,55.1820968 19.3320968,59.4024194 Z M120.407903,25.8377419 C123.771774,25.286129 127.009355,24.6590323 130.104677,23.9641935 C134.722742,38.4217742 144.538548,51.5404839 153.179516,61.023871 C144.322742,57.2259677 132.130645,47.9782258 120.407903,25.8377419 Z" id="Shape"></path>
                        <path d="M50.3482258,112.186452 C54.3372581,109.218871 56.9593548,104.201613 56.9593548,98.5103226 C56.9593548,89.3951613 50.2325806,82.0079032 41.9356452,82.0079032 C33.6391935,82.0079032 26.9119355,89.3956452 26.9119355,98.5103226 C26.9119355,104.201613 29.5345161,109.218871 33.5235484,112.186452 C26.5596774,116.170645 21.7195161,124.940806 21.7195161,135.126774 C21.7195161,149.059839 30.7708065,149.749839 41.9351613,149.749839 C53.1,149.749839 62.1508065,149.059839 62.1508065,135.126774 C62.1512903,124.940806 57.3116129,116.170645 50.3482258,112.186452 Z" id="Shape"></path>
                        <path d="M93.03,112.186452 C97.0185484,109.218871 99.6406452,104.201613 99.6406452,98.5103226 C99.6406452,89.3951613 92.9148387,82.0079032 84.6174194,82.0079032 C76.3204839,82.0079032 69.5946774,89.3956452 69.5946774,98.5103226 C69.5946774,104.201613 72.2162903,109.218871 76.2053226,112.186452 C69.2409677,116.170645 64.4012903,124.940806 64.4012903,135.126774 C64.4012903,149.059839 73.4520968,149.749839 84.6169355,149.749839 C95.7812903,149.749839 104.832097,149.059839 104.832097,135.126774 C104.832581,124.940806 99.9929032,116.170645 93.03,112.186452 Z" id="Shape"></path>
                        <path d="M135.644032,112.186452 C139.633065,109.218871 142.255161,104.201613 142.255161,98.5103226 C142.255161,89.3951613 135.528871,82.0079032 127.231452,82.0079032 C118.935,82.0079032 112.208226,89.3956452 112.208226,98.5103226 C112.208226,104.201613 114.830323,109.218871 118.819355,112.186452 C111.855484,116.170645 107.01629,124.940806 107.01629,135.126774 C107.01629,149.059839 116.067097,149.749839 127.231452,149.749839 C138.395806,149.749839 147.447581,149.059839 147.447581,135.126774 C147.447581,124.940806 142.607903,116.170645 135.644032,112.186452 Z" id="Shape"></path>
                    </g>
                </g>
            </g>
        </g>
    </g>
</svg>