<svg id="Layer_1" data-name="Layer 1" xmlns="http://www.w3.org/2000/svg" viewBox="0 0 481.53 481.53"><defs><style>.cls-1{fill:#ebb71f;}.cls-2{fill:#fff;}</style></defs><title>radiorevolt</title><circle class="cls-1" cx="240.77" cy="240.77" r="240.77"/><path class="cls-2" d="M636.18,294.11a3,3,0,0,0-2.23-.92H563.73a2.88,2.88,0,0,0-2.18.92,3,3,0,0,0-.87,2.12V310a3.16,3.16,0,0,0,.87,2.24,2.9,2.9,0,0,0,2.18.9h21v36H547.42l0.09-53a2.83,2.83,0,0,0-1-2.12,3.12,3.12,0,0,0-2.2-.92h-22a2.89,2.89,0,0,0-2.19.92,3,3,0,0,0-.86,2.12v16.5a31.14,31.14,0,0,0-8.21-10.86q-12.08-10.2-35.63-10.2-15.73,0-26.32,4.56a2.83,2.83,0,0,0-.41-1.77,3.06,3.06,0,0,0-2.79-1.38H423.81a3.12,3.12,0,0,0-1.67.57,3,3,0,0,0-1.17,1.27l-17.65,39.36-18.38-39.36a3.39,3.39,0,0,0-2.84-1.83h-23a3.93,3.93,0,0,0-.91.1H308.91a2.94,2.94,0,0,0-2.13.92,2.89,2.89,0,0,0-.91,2.12v64.15l-9.33-15.73a27.37,27.37,0,0,0-9.34-7.81,36.6,36.6,0,0,0,5-2.09,26.94,26.94,0,0,0,4-2.49q7-5.17,7-16.75,0-10.25-8.52-16.54-7.92-5.79-21-5.79H222.76a2.94,2.94,0,0,0-2.13.92,2.9,2.9,0,0,0-.92,2.12v73.48a3.12,3.12,0,0,0,3.05,3h22.53a3.07,3.07,0,0,0,2.23-.91,2.93,2.93,0,0,0,.91-2.14V344.64h9.85c3.64,0,5.75.21,6.29,0.61a4.34,4.34,0,0,1,1,.81c0.3,0.35.6,0.68,0.87,1l-0.1-.21,13,24.15a3.64,3.64,0,0,0,1.16,1.22,2.83,2.83,0,0,0,1.58.51H307.8c0.2,0,.36,0,0.54-0.05a4.23,4.23,0,0,0,.57.05h61.91a2.9,2.9,0,0,0,2.18-.91,3,3,0,0,0,.86-2.14V354.89a3.16,3.16,0,0,0-.86-2.24,2.88,2.88,0,0,0-2.18-.91H334v-8.53l29.13-.1a2.94,2.94,0,0,0,2.14-.91,3.07,3.07,0,0,0,.91-2.23V325.35a3.11,3.11,0,0,0-3-3H334v-8.12h30.47l5.26,10.73,32.64,66.54,25.77-52.1q1.65,16,11.74,24.46Q451.93,374,475.46,374t35.63-10.15A31,31,0,0,0,519.3,353v16.71a3,3,0,0,0,.91,2.14,3.07,3.07,0,0,0,2.23.91h63.44a2.92,2.92,0,0,0,.95-0.17,3,3,0,0,0,.95.17H610a2.89,2.89,0,0,0,2.18-.91,3,3,0,0,0,.87-2.14V313.17H634A3.11,3.11,0,0,0,637.1,310v-13.8a2.88,2.88,0,0,0-.92-2.12M222.76,290h22.53a3,3,0,0,0,2.23-.91,2.9,2.9,0,0,0,.91-2.13V261.86h9.85c3.64,0,5.75.2,6.29,0.62a4,4,0,0,1,1,.81c0.3,0.33.6,0.68,0.87,1l-0.1-.21,13,24.15a3.58,3.58,0,0,0,1.16,1.21A2.8,2.8,0,0,0,282,290H312.3a3.11,3.11,0,0,0,1.67-.56,2.94,2.94,0,0,0,1.16-1.28l17.66-39.37,18.38,39.37a3.15,3.15,0,0,0,1.21,1.32A3,3,0,0,0,354,290h56.93q17.76,0,29-11.17a37,37,0,0,0,7.51-10.47v18.59a3.22,3.22,0,0,0,.76,2.13,2.35,2.35,0,0,0,1.88.91H469a2.33,2.33,0,0,0,1.88-.91,3.23,3.23,0,0,0,.76-2.13V270.22A30.8,30.8,0,0,0,479.83,281q12.07,10.14,35.61,10.14T551.07,281q12.07-10.15,12.08-31t-12.08-31q-12.09-10.2-35.63-10.2t-35.61,10.2a30.84,30.84,0,0,0-8.21,10.86v-16.5a3.21,3.21,0,0,0-.76-2.13,2.35,2.35,0,0,0-1.88-.91H450.1a2.37,2.37,0,0,0-1.88.91,3.21,3.21,0,0,0-.76,2.13v18.29a35.54,35.54,0,0,0-7.4-10.27q-11.36-11.06-29.54-11.06H366.28a3.05,3.05,0,0,0-2.23.91,2.93,2.93,0,0,0-.91,2.13v38l-29.37-59.9L304,251.87l-6.07,12.27-1.36-2.28a27.63,27.63,0,0,0-9.34-7.81,37.26,37.26,0,0,0,5-2.09,27.18,27.18,0,0,0,4-2.49q7-5.17,7-16.74,0-10.25-8.52-16.54-7.92-5.78-21-5.78H222.76a3.13,3.13,0,0,0-3.05,3v73.48a2.94,2.94,0,0,0,.92,2.13,2.91,2.91,0,0,0,2.13.91" transform="translate(-177.35 -50.76)"/></svg>